<?xml version="1.0" encoding="UTF-8" standalone="no"?>
<!DOCTYPE svg PUBLIC "-//W3C//DTD SVG 1.1//EN"
 "http://www.w3.org/Graphics/SVG/1.1/DTD/svg11.dtd">
<!-- Generated by graphviz version 5.0.0 (20220707.1540)
 -->
<!-- Title: dependencies Pages: 1 -->
<svg width="603pt" height="174pt"
 viewBox="0.00 0.00 603.00 173.80" xmlns="http://www.w3.org/2000/svg" xmlns:xlink="http://www.w3.org/1999/xlink">
<g id="graph0" class="graph" transform="scale(1 1) rotate(0) translate(4 169.8)">
<title>dependencies</title>
<polygon fill="white" stroke="transparent" points="-4,4 -4,-169.8 599,-169.8 599,4 -4,4"/>
<text text-anchor="middle" x="297.5" y="-8.2" font-family="sans-serif" font-size="14.00">dependencies</text>
<g id="clust1" class="cluster">
<title>cluster_MainModule</title>
<polygon fill="none" stroke="black" stroke-dasharray="1,5" points="8,-32.8 8,-157.8 587,-157.8 587,-32.8 8,-32.8"/>
</g>
<g id="clust6" class="cluster">
<title>cluster_MainModule_imports</title>
<polygon fill="none" stroke="black" points="429,-40.8 429,-92.8 579,-92.8 579,-40.8 429,-40.8"/>
</g>
<g id="clust2" class="cluster">
<title>cluster_MainModule_declarations</title>
<polygon fill="none" stroke="black" points="16,-40.8 16,-92.8 421,-92.8 421,-40.8 16,-40.8"/>
</g>
<!-- HomeComponent -->
<g id="node1" class="node">
<title>HomeComponent</title>
<polygon fill="#ffffb3" stroke="black" points="412.55,-84.8 297.45,-84.8 297.45,-48.8 412.55,-48.8 412.55,-84.8"/>
<text text-anchor="middle" x="355" y="-62.6" font-family="Times,serif" font-size="14.00">HomeComponent</text>
</g>
<!-- MainModule -->
<g id="node4" class="node">
<title>MainModule</title>
<polygon fill="#8dd3c7" stroke="black" points="333.6,-149.8 330.6,-153.8 309.6,-153.8 306.6,-149.8 244.4,-149.8 244.4,-113.8 333.6,-113.8 333.6,-149.8"/>
<text text-anchor="middle" x="289" y="-127.6" font-family="Times,serif" font-size="14.00">MainModule</text>
</g>
<!-- HomeComponent&#45;&gt;MainModule -->
<g id="edge1" class="edge">
<title>HomeComponent&#45;&gt;MainModule</title>
<path fill="none" stroke="black" d="M315.39,-84.91C315.39,-84.91 315.39,-103.79 315.39,-103.79"/>
<polygon fill="black" stroke="black" points="311.89,-103.79 315.39,-113.79 318.89,-103.79 311.89,-103.79"/>
</g>
<!-- ItemsComponent -->
<g id="node2" class="node">
<title>ItemsComponent</title>
<polygon fill="#ffffb3" stroke="black" points="279.44,-84.8 166.56,-84.8 166.56,-48.8 279.44,-48.8 279.44,-84.8"/>
<text text-anchor="middle" x="223" y="-62.6" font-family="Times,serif" font-size="14.00">ItemsComponent</text>
</g>
<!-- ItemsComponent&#45;&gt;MainModule -->
<g id="edge2" class="edge">
<title>ItemsComponent&#45;&gt;MainModule</title>
<path fill="none" stroke="black" d="M261.83,-84.91C261.83,-84.91 261.83,-103.79 261.83,-103.79"/>
<polygon fill="black" stroke="black" points="258.33,-103.79 261.83,-113.79 265.33,-103.79 258.33,-103.79"/>
</g>
<!-- SumaryComponent -->
<g id="node3" class="node">
<title>SumaryComponent</title>
<polygon fill="#ffffb3" stroke="black" points="148.38,-84.8 23.62,-84.8 23.62,-48.8 148.38,-48.8 148.38,-84.8"/>
<text text-anchor="middle" x="86" y="-62.6" font-family="Times,serif" font-size="14.00">SumaryComponent</text>
</g>
<!-- SumaryComponent&#45;&gt;MainModule -->
<g id="edge3" class="edge">
<title>SumaryComponent&#45;&gt;MainModule</title>
<path fill="none" stroke="black" d="M86,-84.91C86,-104.14 86,-131.8 86,-131.8 86,-131.8 234.2,-131.8 234.2,-131.8"/>
<polygon fill="black" stroke="black" points="234.2,-135.3 244.2,-131.8 234.2,-128.3 234.2,-135.3"/>
</g>
<!-- MainRoutingModule -->
<g id="node5" class="node">
<title>MainRoutingModule</title>
<polygon fill="#8dd3c7" stroke="black" points="571.22,-84.8 568.22,-88.8 547.22,-88.8 544.22,-84.8 436.78,-84.8 436.78,-48.8 571.22,-48.8 571.22,-84.8"/>
<text text-anchor="middle" x="504" y="-62.6" font-family="Times,serif" font-size="14.00">MainRoutingModule</text>
</g>
<!-- MainRoutingModule&#45;&gt;MainModule -->
<g id="edge4" class="edge">
<title>MainRoutingModule&#45;&gt;MainModule</title>
<path fill="none" stroke="black" d="M504,-84.91C504,-104.14 504,-131.8 504,-131.8 504,-131.8 343.81,-131.8 343.81,-131.8"/>
<polygon fill="black" stroke="black" points="343.81,-128.3 333.81,-131.8 343.81,-135.3 343.81,-128.3"/>
</g>
</g>
</svg>
